<svg id="svg" version="1.1" xmlns="http://www.w3.org/2000/svg" xmlns:xlink="http://www.w3.org/1999/xlink" width="400" height="303.59375" viewBox="0, 0, 400,303.59375"><g id="svgg"><path id="path0" d="M254.444 31.542 C 254.383 40.823,254.352 66.829,254.374 89.333 C 254.397 111.838,254.435 121.856,254.458 111.598 L 254.501 92.945 291.526 93.062 C 311.890 93.126,328.615 93.218,328.692 93.266 C 328.770 93.314,328.833 101.636,328.833 111.760 L 328.833 130.167 317.875 130.191 C 311.848 130.204,295.104 130.266,280.667 130.329 C 262.795 130.406,277.651 130.438,327.208 130.430 L 400.000 130.417 400.000 111.625 L 400.000 92.833 390.677 92.833 C 384.641 92.833,381.317 92.892,381.250 93.000 C 381.130 93.195,356.935 93.227,339.861 93.056 L 328.833 92.945 328.833 70.681 C 328.833 58.436,328.783 40.823,328.722 31.542 L 328.612 14.667 291.583 14.667 L 254.555 14.667 254.444 31.542 " stroke="none" fill="#d85217" fill-rule="evenodd"></path><path id="path1" d="M254.500 111.556 L 254.500 130.167 217.250 130.167 L 180.000 130.167 180.000 139.667 L 180.000 149.167 217.292 149.125 L 254.583 149.083 254.583 139.708 L 254.583 130.333 270.833 130.333 C 279.771 130.333,296.477 130.283,307.958 130.222 L 328.833 130.112 328.833 111.732 C 328.833 101.624,328.770 93.314,328.692 93.266 C 328.615 93.218,311.890 93.126,291.526 93.062 L 254.500 92.945 254.500 111.556 " stroke="none" fill="#ac1c04" fill-rule="evenodd"></path><path id="path2" d="M254.374 18.625 C 254.402 31.436,254.428 33.725,254.458 25.958 L 254.502 14.667 291.557 14.667 L 328.612 14.667 328.722 31.542 C 328.783 40.823,328.833 58.439,328.833 70.688 L 328.833 92.960 343.542 93.074 C 351.631 93.137,363.425 93.165,369.750 93.136 L 381.250 93.083 381.292 65.125 L 381.334 37.167 362.417 37.167 L 343.500 37.167 343.500 25.833 L 343.500 14.500 336.250 14.500 L 329.000 14.500 329.000 7.250 L 329.000 0.000 291.667 0.000 L 254.333 0.000 254.374 18.625 M352.888 130.458 C 358.097 130.483,366.572 130.483,371.721 130.458 C 376.870 130.434,372.608 130.414,362.250 130.414 C 351.892 130.414,347.679 130.434,352.888 130.458 " stroke="none" fill="#f0ab2c" fill-rule="evenodd"></path><path id="path3" d="M206.833 192.071 C 204.430 192.604,201.378 194.153,199.794 195.645 L 198.667 196.707 198.667 211.434 L 198.667 226.161 197.875 227.299 C 197.097 228.418,193.219 233.649,191.583 235.786 C 191.125 236.385,190.412 237.351,190.000 237.933 C 189.588 238.514,188.875 239.475,188.417 240.067 C 187.101 241.768,185.474 243.967,184.778 244.983 C 184.427 245.497,183.948 246.120,183.712 246.368 C 183.477 246.616,182.977 247.270,182.600 247.822 C 182.224 248.373,181.504 249.362,181.000 250.021 L 180.083 251.217 180.041 222.609 L 179.999 194.000 170.921 194.000 L 161.843 194.000 160.848 195.708 C 160.301 196.648,159.455 198.044,158.968 198.810 C 158.482 199.576,157.933 200.476,157.749 200.810 C 157.264 201.690,156.215 203.395,155.564 204.362 C 155.254 204.823,155.000 205.272,155.000 205.359 C 155.000 205.446,154.599 206.132,154.108 206.884 C 153.617 207.635,152.891 208.813,152.493 209.500 C 152.096 210.188,151.414 211.297,150.978 211.966 C 150.541 212.636,150.132 213.348,150.070 213.550 C 150.007 213.752,149.907 213.954,149.847 214.000 C 149.649 214.153,147.500 217.620,147.500 217.786 C 147.500 217.876,147.288 218.242,147.029 218.600 C 146.771 218.957,146.009 220.188,145.338 221.333 C 144.666 222.479,143.936 223.661,143.715 223.960 C 143.494 224.259,143.106 224.897,142.851 225.377 C 142.406 226.219,141.746 227.294,140.562 229.112 C 140.253 229.585,140.000 230.025,140.000 230.089 C 140.000 230.152,139.438 231.092,138.750 232.177 C 138.063 233.263,137.500 234.196,137.500 234.251 C 137.500 234.307,136.986 235.154,136.359 236.134 C 135.731 237.115,135.112 238.118,134.984 238.365 C 134.855 238.612,134.375 239.421,133.917 240.164 C 133.458 240.907,132.916 241.792,132.711 242.132 L 132.339 242.750 132.295 218.417 L 132.250 194.083 126.833 194.083 L 121.417 194.083 116.417 195.277 C 113.667 195.934,110.704 196.617,109.833 196.795 C 108.962 196.973,106.450 197.540,104.250 198.054 C 102.050 198.568,98.975 199.273,97.417 199.620 L 94.583 200.251 94.538 203.959 C 94.497 207.411,94.514 207.667,94.788 207.667 C 94.951 207.667,97.671 207.925,100.833 208.240 C 103.996 208.555,107.240 208.865,108.042 208.929 L 109.500 209.046 109.500 239.606 L 109.500 270.167 119.042 270.165 L 128.583 270.164 129.292 269.016 C 129.681 268.384,130.000 267.821,130.000 267.764 C 130.000 267.707,130.478 266.931,131.062 266.039 C 131.645 265.147,132.256 264.154,132.418 263.833 C 132.581 263.512,133.218 262.462,133.834 261.500 C 134.450 260.537,135.007 259.582,135.071 259.376 C 135.136 259.170,135.280 258.908,135.391 258.793 C 135.665 258.510,137.500 255.579,137.500 255.424 C 137.500 255.357,137.900 254.690,138.389 253.942 C 138.877 253.195,139.712 251.833,140.244 250.917 C 140.775 250.000,141.392 249.006,141.614 248.708 C 141.835 248.410,142.242 247.735,142.517 247.208 C 142.792 246.681,143.385 245.688,143.836 245.000 C 144.287 244.313,144.852 243.375,145.091 242.917 C 145.331 242.458,145.695 241.858,145.902 241.583 C 146.258 241.109,148.479 237.463,149.917 234.993 C 150.283 234.363,150.950 233.264,151.399 232.549 C 151.848 231.835,152.403 230.912,152.633 230.500 C 152.863 230.088,153.441 229.150,153.919 228.417 C 154.396 227.683,154.891 226.878,155.018 226.628 C 155.146 226.378,155.625 225.565,156.083 224.822 L 156.917 223.472 156.959 246.819 L 157.001 270.167 167.709 270.167 L 178.417 270.167 178.848 269.625 C 179.085 269.327,179.757 268.446,180.340 267.667 C 180.923 266.887,181.489 266.175,181.598 266.083 C 181.706 265.992,182.079 265.506,182.425 265.004 C 182.772 264.502,183.450 263.627,183.932 263.058 C 184.414 262.490,184.899 261.856,185.010 261.648 C 185.121 261.441,185.357 261.116,185.535 260.927 C 185.712 260.738,186.282 260.021,186.802 259.333 C 187.321 258.646,188.197 257.523,188.748 256.838 C 189.299 256.152,189.938 255.315,190.167 254.977 C 190.396 254.639,190.921 253.974,191.333 253.498 C 191.746 253.023,192.271 252.351,192.500 252.006 C 192.729 251.661,193.367 250.817,193.917 250.131 C 194.830 248.992,195.890 247.632,198.173 244.667 C 199.822 242.525,200.181 242.065,201.162 240.833 C 201.709 240.146,202.328 239.341,202.537 239.046 C 203.230 238.064,206.052 234.426,206.608 233.798 C 206.909 233.457,207.339 232.895,207.564 232.548 C 207.789 232.201,208.281 231.579,208.656 231.167 C 209.032 230.754,209.543 230.117,209.791 229.750 C 210.039 229.383,210.413 228.904,210.621 228.685 C 211.009 228.278,214.388 223.934,214.826 223.279 C 214.959 223.080,215.535 222.311,216.104 221.570 C 216.674 220.829,217.304 219.929,217.503 219.570 C 217.703 219.211,217.998 218.767,218.160 218.583 C 219.094 217.527,221.588 212.958,222.208 211.167 C 223.421 207.666,223.406 202.934,222.171 199.752 C 220.100 194.413,212.788 190.750,206.833 192.071 M262.083 192.021 C 259.843 192.235,256.657 192.802,254.500 193.371 C 253.446 193.649,252.283 193.936,251.917 194.009 C 251.064 194.180,248.794 195.012,247.083 195.781 C 243.919 197.204,243.297 197.509,242.626 197.966 C 242.236 198.233,241.566 198.645,241.137 198.882 C 240.708 199.119,239.778 199.749,239.070 200.282 C 238.363 200.814,237.476 201.481,237.100 201.764 C 236.368 202.316,233.138 205.459,232.550 206.193 C 232.355 206.437,231.853 207.057,231.435 207.569 C 221.487 219.783,220.479 240.527,229.183 253.914 C 232.348 258.783,237.738 264.163,241.579 266.287 C 243.386 267.287,246.211 268.667,246.450 268.667 C 246.579 268.667,247.470 268.929,248.430 269.250 C 256.073 271.808,270.235 271.932,279.417 269.523 C 280.425 269.258,281.625 268.949,282.083 268.835 C 283.443 268.499,285.971 267.664,287.701 266.981 C 288.591 266.629,289.754 266.195,290.285 266.015 C 290.816 265.836,292.150 265.265,293.250 264.746 C 294.350 264.228,295.587 263.691,296.000 263.553 C 296.412 263.416,296.919 263.196,297.125 263.064 L 297.500 262.826 297.500 255.829 C 297.500 249.686,297.469 248.833,297.247 248.833 C 297.108 248.833,295.889 249.390,294.539 250.069 C 291.636 251.531,286.729 253.833,286.517 253.833 C 286.436 253.833,285.606 254.136,284.675 254.505 C 276.956 257.564,269.602 257.583,264.105 254.556 C 263.383 254.158,262.759 253.833,262.717 253.833 C 261.624 253.833,255.000 246.429,255.000 245.207 C 255.000 245.117,254.704 244.415,254.343 243.647 C 250.514 235.509,250.509 221.469,254.333 213.168 C 254.700 212.371,255.000 211.669,255.000 211.608 C 255.000 211.503,256.280 209.565,257.335 208.073 C 258.794 206.008,263.022 202.991,266.083 201.830 C 266.475 201.681,270.282 200.669,270.457 200.667 C 270.479 200.667,270.517 205.215,270.540 210.774 C 270.578 219.557,270.616 220.898,270.833 221.013 C 279.937 225.860,287.421 226.021,292.807 221.488 C 299.210 216.098,298.125 204.369,290.705 198.764 C 290.271 198.437,289.579 197.907,289.167 197.586 C 283.823 193.434,272.237 191.054,262.083 192.021 M27.167 193.102 C 25.929 193.509,24.579 193.917,24.167 194.009 C 23.754 194.101,21.795 194.699,19.814 195.338 C 17.832 195.977,16.099 196.500,15.962 196.500 C 15.825 196.500,14.108 197.021,12.148 197.657 C 10.187 198.293,8.358 198.861,8.083 198.919 C 7.808 198.977,5.877 199.563,3.792 200.221 L 0.001 201.417 0.000 205.125 L 0.000 208.833 6.167 208.833 L 12.333 208.833 12.333 251.128 L 12.333 293.422 10.792 293.816 C 9.944 294.033,7.750 294.603,5.917 295.083 C 4.083 295.563,2.227 296.008,1.792 296.071 L 1.000 296.187 1.000 299.844 L 1.000 303.500 25.503 303.500 L 50.007 303.500 49.962 299.875 L 49.917 296.250 49.083 296.101 C 48.625 296.019,46.600 295.558,44.583 295.075 C 42.567 294.593,40.148 294.026,39.208 293.816 L 37.500 293.433 37.500 281.471 L 37.500 269.508 37.958 269.581 C 39.265 269.788,46.600 270.082,50.250 270.073 C 59.202 270.051,67.184 268.084,73.289 264.395 C 73.952 263.994,74.532 263.667,74.579 263.667 C 74.625 263.667,75.305 263.198,76.090 262.625 C 76.876 262.052,77.805 261.378,78.156 261.127 C 78.838 260.639,81.894 257.640,83.224 256.153 C 89.423 249.219,93.074 236.726,92.183 225.500 C 91.882 221.705,91.473 219.566,90.088 214.535 C 89.680 213.052,88.279 209.705,87.752 208.952 C 87.613 208.754,87.500 208.471,87.500 208.323 C 87.500 207.523,81.481 199.514,80.866 199.497 C 80.802 199.495,80.450 199.226,80.083 198.899 C 73.498 193.028,64.356 191.256,54.357 193.914 C 51.628 194.639,45.015 197.842,40.572 200.591 C 39.924 200.991,38.968 201.543,38.447 201.817 L 37.500 202.316 37.500 197.324 L 37.500 192.333 33.458 192.348 L 29.417 192.363 27.167 193.102 M51.037 209.254 C 54.893 210.232,58.714 212.644,60.437 215.187 C 60.771 215.680,61.174 216.233,61.332 216.417 C 63.009 218.361,64.765 224.346,65.024 229.000 C 65.670 240.602,63.431 248.864,58.190 254.217 C 54.252 258.239,49.128 260.061,41.125 260.283 L 37.500 260.384 37.500 235.109 C 37.500 221.207,37.534 209.833,37.575 209.833 C 37.616 209.833,38.460 209.674,39.450 209.479 C 42.942 208.791,48.768 208.678,51.037 209.254 " stroke="none" fill="#040404" fill-rule="evenodd"></path><path id="path4" d="" stroke="none" fill="#286454" fill-rule="evenodd"></path></g></svg>